<svg width="140" height="140" viewBox="0 0 140 140" fill="none" xmlns="http://www.w3.org/2000/svg">
<path d="M135.029 52.7328L134.955 52.6583C131.074 48.8249 125.784 47.2943 120.759 48.019L120.644 28.4727C120.617 23.9959 118.849 19.7968 115.659 16.6475C112.476 13.4981 108.25 11.7643 103.773 11.8117H103.664C98.2123 11.8456 93.3698 14.4937 90.3356 18.5574L76.4446 4.83576C73.2817 1.71351 69.1029 0 64.6667 0C64.6329 0 64.599 0 64.5652 0C60.0884 0.0270911 55.8892 1.79479 52.7399 4.97799L52.6654 5.05926C49.5161 8.24247 47.8025 12.4619 47.8296 16.9455C47.8296 17.7243 47.8974 18.4964 48.0057 19.2618L28.4866 19.3769C19.2418 19.4311 11.7714 26.9963 11.8256 36.2411V36.3495C11.8527 40.8263 13.6204 45.0254 16.8103 48.1747C17.3657 48.7233 17.9549 49.2245 18.5713 49.6851L4.84962 63.5693C1.69351 66.7525 -0.0267759 70.9787 0.000315157 75.4555C0.0274062 79.9323 1.7951 84.1314 4.98508 87.2807L5.05958 87.3552C8.22246 90.4775 12.4013 92.191 16.8374 92.191C16.8713 92.191 16.9052 92.191 16.939 92.191C17.7179 92.191 18.49 92.1233 19.2553 92.0149L19.3704 111.534C19.3975 116.011 21.1652 120.21 24.3552 123.359C27.5181 126.482 31.6969 128.195 36.1331 128.195C36.1669 128.195 36.2008 128.195 36.2346 128.195H36.343C41.7951 128.161 46.6309 125.513 49.6718 121.449L63.5628 135.171C66.8273 138.395 71.0873 140 75.3474 140C79.6075 140 83.9962 138.341 87.2743 135.029L87.3488 134.948C91.1822 131.067 92.7128 125.777 91.9881 120.752L111.534 120.637C120.779 120.582 128.25 113.017 128.195 103.772V103.664C128.168 99.1873 126.401 94.9882 123.211 91.8388C122.655 91.2902 122.066 90.789 121.45 90.3285L135.165 76.4443C141.66 69.8679 141.599 59.2347 135.022 52.7328H135.029ZM99.3366 64.8628C98.5509 65.5943 97.7517 66.4003 96.939 67.2875L92.5977 71.683L95.4896 74.5411L102.229 67.721C107.43 62.9123 112.503 61.3275 117.318 63.0207C121.863 64.6123 123.922 69.746 123.949 74.128V74.2364C123.989 81.2394 118.327 86.9692 111.324 87.0166L94.3654 87.1182C93.2953 87.0776 92.1642 87.0843 90.9722 87.1385L84.7954 87.1791L84.8225 91.2428L94.3924 91.1818C101.484 91.4595 106.191 93.9248 108.405 98.5303C110.491 102.872 108.317 107.958 105.236 111.08L105.161 111.155C102.777 113.566 99.5939 114.907 96.2008 114.927C92.8008 114.968 89.6109 113.647 87.1998 111.263L75.1375 99.3498C74.406 98.5642 73.6068 97.765 72.7196 96.959L68.324 92.6177L65.4659 95.5097L72.2861 102.249C77.0948 107.457 78.6796 112.523 76.9932 117.345C75.4016 121.89 70.2678 123.949 65.8858 123.976H65.7775C65.7775 123.976 65.7233 123.976 65.6962 123.976C58.727 123.976 53.0379 118.327 52.9973 111.351L52.8957 94.3989C52.9363 93.322 52.9295 92.191 52.8754 90.9922L52.8347 84.8154L48.7711 84.8425L48.832 94.4328C48.5543 101.517 46.089 106.217 41.4835 108.432C37.1422 110.518 32.0559 108.344 28.9336 105.262L28.8591 105.188C26.448 102.804 25.107 99.6207 25.0867 96.2276C25.0663 92.8344 26.3667 89.6376 28.7507 87.2265L40.6573 75.171C41.4429 74.4396 42.2421 73.6336 43.0548 72.7464L47.3962 68.3508L44.5042 65.4927L37.7653 72.3129C32.557 77.1216 27.491 78.7064 22.6688 77.02C18.1243 75.4284 16.0653 70.2946 16.0382 65.9126V65.8043C15.9976 58.8012 21.6596 53.0715 28.6627 53.024L45.6488 52.9225C46.0958 52.936 46.5564 52.9495 47.0237 52.9495C47.6671 52.9495 48.3376 52.936 49.0216 52.9021L55.1984 52.8615L55.1713 48.7978L45.5811 48.8588C38.5035 48.5811 33.7965 46.1158 31.5818 41.5103C29.4957 37.169 31.6698 32.0826 34.7446 28.9672L34.8191 28.8927C37.2032 26.4815 40.3864 25.1405 43.7795 25.1202C47.1659 25.1134 50.3694 26.4003 52.7805 28.7843L64.8361 40.6976C65.5675 41.4832 66.3735 42.2824 67.2607 43.0952L71.6562 47.4365L74.5144 44.5445L67.6942 37.8056C62.8855 32.5974 61.3007 27.5313 62.9871 22.7091C64.5787 18.1646 69.7125 16.1057 74.0945 16.0786H74.2028C77.5824 16.0312 80.7927 17.3586 83.2038 19.7426C85.6149 22.1266 86.9559 25.3099 86.9763 28.703L87.0779 45.6485C87.0372 46.7254 87.044 47.8564 87.0982 49.0552L87.1388 55.232L91.2025 55.2049L91.1415 45.6146C91.4192 38.5371 93.8845 33.83 98.49 31.6153C102.831 29.5293 107.918 31.7034 111.033 34.7782L111.114 34.8595C113.526 37.2435 114.867 40.4267 114.887 43.8198C114.907 47.213 113.607 50.4098 111.223 52.8209L99.3095 64.8764L99.3366 64.8628ZM103.691 15.8822H103.8C107.193 15.8415 110.39 17.1622 112.801 19.5462C115.212 21.9302 116.553 25.1134 116.573 28.5066L116.614 35.2997C115.896 34.0941 115.016 32.9699 113.993 31.9607L113.912 31.8794C108.947 26.976 102.052 25.3911 96.7494 27.9445C94.8394 28.8656 92.8008 30.3149 91.0873 32.5906L91.0602 28.6624C91.0196 21.6593 96.6816 15.9296 103.685 15.8822H103.691ZM55.5506 7.9106L55.6251 7.8361C58.0091 5.42499 61.1923 4.08398 64.5855 4.06366C67.9719 4.01625 71.1754 5.34372 73.5865 7.72773L78.4019 12.4822C77.0474 12.1436 75.6386 11.9743 74.2028 11.9946H74.0945C67.1117 12.0352 61.1178 15.7941 59.174 21.3478C58.4697 23.3525 58.0565 25.8178 58.4561 28.6353L55.659 25.872C53.2479 23.488 51.9068 20.3048 51.8865 16.9116C51.8662 13.5185 53.1666 10.3217 55.5574 7.90383L55.5506 7.9106ZM15.8825 36.3224V36.214C15.8418 29.211 21.5039 23.4812 28.5069 23.4338L35.3 23.3932C34.0945 24.1111 32.9702 24.9915 31.961 26.0142L31.8865 26.0955C26.983 31.0599 25.3982 37.9546 27.9515 43.2577C28.8726 45.1676 30.322 47.2062 32.6044 48.9197L28.6695 48.9468C25.2899 49.001 22.0796 47.6668 19.6684 45.2828C17.2573 42.8987 15.9163 39.7155 15.896 36.3224H15.8825ZM16.9187 88.1273C16.9187 88.1273 16.8645 88.1273 16.8374 88.1273C13.4714 88.1273 10.3085 86.827 7.91091 84.4633L7.83641 84.3888C5.42531 82.0047 4.0843 78.8215 4.06398 75.4284C4.04366 72.0352 5.34403 68.8385 7.72805 66.4274L12.5096 61.5916C12.1642 62.9394 11.9881 64.3549 11.9949 65.811V65.9194C12.0355 72.9021 15.7944 78.896 21.3481 80.8398C22.811 81.3546 24.5245 81.7135 26.448 81.7135C27.1524 81.7135 27.8906 81.6593 28.6491 81.551L25.8791 84.3549C23.4951 86.766 20.3119 88.107 16.9187 88.1273ZM36.3227 124.131H36.2143C32.8212 124.186 29.6244 122.851 27.2133 120.467C24.8022 118.083 23.4612 114.9 23.4409 111.507L23.4002 104.714C24.1182 105.919 24.9986 107.044 26.0213 108.06L26.0958 108.134C29.4822 111.48 33.7626 113.275 37.8195 113.275C39.7159 113.275 41.5716 112.882 43.258 112.069C45.1679 111.148 47.2065 109.699 48.9201 107.423L48.9471 111.351C48.9878 118.354 43.3257 124.084 36.3227 124.131ZM84.4636 132.096L84.3891 132.177C79.4653 137.162 71.4124 137.21 66.4277 132.286L61.5919 127.504C62.9126 127.836 64.2875 128.019 65.7098 128.019C65.7436 128.019 65.7775 128.019 65.8113 128.019H65.9197C72.9024 127.978 78.8963 124.219 80.8401 118.666C81.5445 116.661 81.9576 114.196 81.558 111.378L84.3552 114.142C89.34 119.065 89.3874 127.118 84.4636 132.103V132.096ZM124.132 103.691V103.8C124.172 110.803 118.51 116.532 111.507 116.58L104.714 116.62C105.92 115.896 107.044 115.022 108.06 113.993L108.134 113.918C113.038 108.954 114.623 102.059 112.069 96.7558C111.148 94.8459 109.699 92.8073 107.423 91.0938L111.358 91.0667C114.731 91.0193 117.948 92.3468 120.359 94.7308C122.77 97.1148 124.111 100.298 124.132 103.691ZM127.505 78.4219C127.85 77.0742 128.026 75.6586 128.019 74.2025V74.0941C127.979 67.1114 124.22 61.1175 118.666 59.1737C116.661 58.4694 114.196 58.0562 111.379 58.4558L114.142 55.6586C119.066 50.6739 127.118 50.6265 132.103 55.5503L132.178 55.6248C137.163 60.5486 137.21 68.6014 132.286 73.5862L127.505 78.4219Z" fill="#0B1B68"/>
</svg>
