<svg width="575" height="102" viewBox="0 0 575 102" fill="none" xmlns="http://www.w3.org/2000/svg">
<path fill-rule="evenodd" clip-rule="evenodd" d="M97.7472 38.1732L97.6933 38.1192C94.884 35.3442 91.0549 34.2362 87.417 34.7608L87.3337 20.6113C87.3141 17.3706 86.0344 14.3309 83.7252 12.0511C81.4209 9.77127 78.3616 8.51615 75.1208 8.55047H75.0424C71.0956 8.57499 67.5901 10.492 65.3937 13.4337L55.3381 3.50059C53.0484 1.24041 50.0234 0 46.8121 0H46.7386C43.4978 0.0196112 40.4581 1.29924 38.1783 3.60355L38.1243 3.66239C35.8445 5.9667 34.6041 9.02114 34.6237 12.2668C34.6237 12.8306 34.6728 13.3895 34.7512 13.9435L20.6214 14.0269C13.9291 14.0661 8.52128 19.5425 8.5605 26.2348V26.3133C8.58011 29.554 9.85974 32.5938 12.169 34.8736C12.571 35.2707 12.9975 35.6335 13.4437 35.9669L3.51063 46.0176C1.22593 48.3219 -0.019383 51.3813 0.000228142 54.622C0.0198393 57.8628 1.29947 60.9025 3.60868 63.1823L3.66261 63.2362C5.95222 65.4964 8.97724 66.7368 12.1886 66.7368H12.2621C12.8259 66.7368 13.3849 66.6878 13.9389 66.6094L14.0222 80.7392C14.0418 83.98 15.3215 87.0197 17.6307 89.2995C19.9203 91.5597 22.9453 92.8001 26.1566 92.8001H26.2302H26.3086C30.2554 92.7756 33.756 90.8586 35.9573 87.9169L46.0129 97.85C48.3761 100.184 51.4599 101.346 54.5438 101.346C57.6277 101.346 60.8047 100.144 63.1776 97.747L63.2315 97.6882C66.0065 94.8789 67.1146 91.0498 66.59 87.4119L80.7394 87.3286C87.4317 87.2893 92.8395 81.8129 92.8003 75.1206V75.0422C92.7807 71.8014 91.501 68.7617 89.1918 66.4819C88.7898 66.0848 88.3633 65.722 87.9171 65.3886L97.8453 55.3378C102.547 50.5772 102.503 42.8798 97.7423 38.1732H97.7472ZM71.9095 46.9541C71.3408 47.4836 70.7622 48.067 70.1739 48.7093L67.0312 51.8912L69.1247 53.9602L74.003 49.023C77.7683 45.5421 81.4405 44.3948 84.9264 45.6205C88.2162 46.7727 89.7066 50.489 89.7262 53.6611V53.7395C89.7556 58.809 85.6569 62.9568 80.5874 62.9911L68.3108 63.0646C67.5362 63.0352 66.7174 63.0401 65.8545 63.0793L61.3832 63.1088L61.4028 66.0504L68.3304 66.0063C73.4637 66.2073 76.8711 67.9919 78.4743 71.3258C79.9844 74.4685 78.4106 78.1505 76.1798 80.4107L76.1259 80.4647C74.4001 82.21 72.0958 83.1808 69.6395 83.1955C67.1783 83.2249 64.8691 82.2689 63.1237 80.5431L54.3918 71.9191C53.8623 71.3504 53.2838 70.7718 52.6415 70.1884L49.4596 67.0457L47.3906 69.1392L52.3277 74.0175C55.8087 77.7877 56.956 81.455 55.7352 84.9458C54.583 88.2356 50.8667 89.726 47.6946 89.7456H47.6161H47.5573C42.5123 89.7456 38.394 85.6567 38.3646 80.6068L38.291 68.3351C38.3205 67.5556 38.3156 66.7368 38.2763 65.869L38.2469 61.3977L35.3052 61.4173L35.3494 68.3597C35.1483 73.488 33.3637 76.8905 30.0298 78.4937C26.8871 80.0038 23.2051 78.43 20.945 76.1992L20.891 76.1453C19.1456 74.4195 18.1749 72.1152 18.1602 69.6589C18.1455 67.2026 19.0868 64.8885 20.8126 63.1431L29.4317 54.4161C30.0004 53.8866 30.5789 53.3032 31.1673 52.6609L34.31 49.479L32.2165 47.41L27.3382 52.3471C23.568 55.8281 19.9007 56.9754 16.4099 55.7546C13.1201 54.6024 11.6297 50.8861 11.61 47.714V47.6355C11.5806 42.5661 15.6794 38.4183 20.7488 38.384L33.0451 38.3104C33.3686 38.3202 33.702 38.33 34.0403 38.33C34.5061 38.33 34.9915 38.3202 35.4866 38.2957L39.958 38.2663L39.9384 35.3246L32.996 35.3688C27.8726 35.1677 24.4652 33.3831 22.8619 30.0492C21.3519 26.9065 22.9257 23.2245 25.1516 20.9692L25.2055 20.9153C26.9313 19.1699 29.2356 18.1992 31.6919 18.1845C34.1433 18.1796 36.4623 19.1111 38.2077 20.8369L46.9347 29.4609C47.4642 30.0296 48.0476 30.6081 48.6899 31.1965L51.8718 34.3392L53.9408 32.2457L49.0036 27.3674C45.5227 23.5971 44.3754 19.9299 45.5962 16.4391C46.7484 13.1493 50.4647 11.6588 53.6368 11.6392H53.7152C56.1617 11.6049 58.4856 12.5659 60.231 14.2916C61.9764 16.0174 62.9472 18.3217 62.9619 20.778L63.0354 33.0448C63.006 33.8244 63.0109 34.6431 63.0501 35.5109L63.0796 39.9823L66.0212 39.9627L65.9771 33.0203C66.1781 27.8969 67.9627 24.4895 71.2966 22.8862C74.4393 21.3762 78.1213 22.95 80.3766 25.1758L80.4354 25.2347C82.1808 26.9605 83.1516 29.2648 83.1663 31.7211C83.181 34.1774 82.2397 36.4915 80.5139 38.2369L71.8899 46.9639L71.9095 46.9541ZM75.062 11.4971H75.1404C77.5967 11.4676 79.9108 12.4237 81.6562 14.1495C83.4016 15.8752 84.3724 18.1796 84.3871 20.6359L84.4165 25.5534C83.8968 24.6807 83.2594 23.8668 82.5191 23.1363L82.4603 23.0775C78.8665 19.5278 73.8755 18.3806 70.0366 20.2289C68.654 20.8957 67.1783 21.9449 65.9379 23.5922L65.9183 20.7486C65.8889 15.6791 69.9876 11.5314 75.0571 11.4971H75.062ZM40.2178 5.72156L40.2669 5.67253C41.9926 3.92714 44.297 2.95638 46.7533 2.94168C49.2047 2.90736 51.5237 3.8683 53.2691 5.59409L56.755 9.03585C55.7744 8.79071 54.7546 8.66814 53.7152 8.68285H53.6368C48.582 8.71227 44.243 11.4333 42.8359 15.4536C42.326 16.9048 42.027 18.6895 42.3162 20.729L40.2914 18.7287C38.546 17.0029 37.5752 14.6986 37.5605 12.2423C37.5458 9.78598 38.4871 7.47186 40.2178 5.72156ZM11.4973 26.2937V26.2152C11.4679 21.1458 15.5666 16.998 20.6361 16.9637L25.5536 16.9343C24.6809 17.4539 23.867 18.0913 23.1365 18.8316L23.0826 18.8905C19.533 22.4842 18.3857 27.4753 20.2341 31.3141C20.9008 32.6967 21.95 34.1725 23.6023 35.4129L20.7537 35.4325C18.3073 35.4717 15.9833 34.5059 14.2379 32.7801C12.4925 31.0543 11.5218 28.75 11.5071 26.2937H11.4973ZM12.2474 63.7952H12.1886C9.75188 63.7952 7.46228 62.8538 5.72669 61.1427L5.67276 61.0888C3.92736 59.363 2.95661 57.0587 2.9419 54.6024C2.9272 52.1461 3.86853 49.832 5.59431 48.0866L9.05569 44.586C8.80564 45.5617 8.67817 46.5863 8.68307 47.6404V47.7189C8.71249 52.7737 11.4335 57.1126 15.4538 58.5197C16.5128 58.8924 17.7532 59.1522 19.1456 59.1522C19.6555 59.1522 20.1899 59.113 20.739 59.0345L18.7338 61.0643C17.008 62.8097 14.7037 63.7804 12.2474 63.7952ZM26.2939 89.8584H26.2155C23.7592 89.8976 21.445 88.9318 19.6996 87.206C17.9543 85.4802 16.9835 83.1759 16.9688 80.7196L16.9394 75.8021C17.4591 76.6748 18.0964 77.4887 18.8368 78.2241L18.8907 78.278C21.3421 80.7 24.4406 81.9992 27.3774 81.9992C28.7502 81.9992 30.0936 81.7149 31.3144 81.1265C32.697 80.4598 34.1727 79.4106 35.4131 77.7632L35.4327 80.6068C35.4621 85.6763 31.3634 89.8241 26.2939 89.8584ZM61.143 95.6241L61.089 95.6829C57.5247 99.2914 51.6953 99.3257 48.0868 95.7614L44.5862 92.3C45.5423 92.5402 46.5375 92.6726 47.5671 92.6726H47.6407H47.7191C52.7739 92.6432 57.1129 89.9221 58.52 85.9019C59.0299 84.4506 59.3289 82.666 59.0397 80.6264L61.0645 82.6268C64.673 86.1911 64.7073 92.0205 61.143 95.629V95.6241ZM89.8586 75.0618V75.1402C89.888 80.2097 85.7893 84.3575 80.7198 84.3918L75.8023 84.4212C76.675 83.8966 77.4889 83.2642 78.2243 82.5189L78.2782 82.465C81.8278 78.8712 82.9751 73.8802 81.1267 70.0413C80.46 68.6587 79.4108 67.183 77.7634 65.9426L80.6119 65.923C83.0535 65.8886 85.3824 66.8496 87.1278 68.5754C88.8731 70.3012 89.8439 72.6055 89.8586 75.0618ZM92.3002 56.7695C92.5502 55.7938 92.6777 54.7691 92.6728 53.715V53.6366C92.6434 48.5818 89.9223 44.2428 85.9021 42.8357C84.4508 42.3258 82.6662 42.0267 80.6266 42.316L82.627 40.2912C86.1913 36.6827 92.0207 36.6484 95.6292 40.2127L95.6831 40.2666C99.2916 43.831 99.3259 49.6604 95.7616 53.2689L92.3002 56.7695ZM565.754 28.9487C561.542 28.9487 558.127 25.5337 558.127 21.3211C558.127 17.1085 561.542 13.6935 565.754 13.6935C569.967 13.6935 573.382 17.1085 573.382 21.3211C573.382 25.5337 569.967 28.9487 565.754 28.9487ZM557.463 21.3211C557.463 16.7422 561.175 13.0303 565.754 13.0303C570.333 13.0303 574.045 16.7422 574.045 21.3211C574.045 25.9001 570.333 29.612 565.754 29.612C561.175 29.612 557.463 25.9001 557.463 21.3211ZM564.821 22.2383V24.3059H563.434V18.3365H564.359H564.821H565.7C566.113 18.3365 566.486 18.423 566.819 18.5961C567.158 18.7691 567.423 19.0084 567.614 19.3141C567.812 19.614 567.91 19.9485 567.91 20.3177C567.91 20.681 567.815 21.0098 567.624 21.3039C567.432 21.5981 567.17 21.8288 566.838 21.996C566.803 22.0126 566.769 22.0283 566.734 22.0432L568.077 24.3059H566.412L565.281 22.2383H564.821ZM564.821 19.5564V21.1136H565.672C565.82 21.1136 565.956 21.079 566.079 21.0098C566.209 20.9406 566.307 20.8483 566.375 20.7329C566.449 20.6118 566.486 20.4792 566.486 20.335C566.486 20.1908 566.449 20.061 566.375 19.9457C566.307 19.8245 566.209 19.7294 566.079 19.6602C565.956 19.591 565.82 19.5564 565.672 19.5564H564.821ZM272.892 36.7987C270.616 32.6368 264.89 30.1295 258.932 30.1295V30.1352C246.774 30.1352 238.383 39.0745 238.383 51.6222C238.383 64.17 246.537 73.1092 258.616 73.1092C265.206 73.1092 270.853 70.2857 273.519 65.1864H273.756C273.677 66.2029 273.598 67.4622 273.598 69.2636V71.8499H281.363V13.0303H272.971V32.8006C272.971 34.9973 273.05 35.9347 273.208 36.7987H272.892ZM260.113 37.578C267.798 37.578 273.287 43.3832 273.287 51.5375C273.287 59.6128 267.64 65.497 260.113 65.497C252.585 65.497 246.938 59.6918 246.938 51.5375C246.938 43.3832 252.427 37.578 260.113 37.578ZM127.406 71.8556V45.4274C127.406 41.418 128.688 37.9563 130.918 35.3418C133.714 32.0665 137.994 30.1295 143.094 30.1295H143.511C148.17 30.1295 152.264 31.8011 155.133 34.6698C157.911 31.8067 161.943 30.1295 166.687 30.1295C166.777 30.1295 166.873 30.1295 166.964 30.1352C167.06 30.1295 167.15 30.1295 167.246 30.1295C172.193 30.1295 176.501 32.0156 179.381 35.2062C181.708 37.7813 183.114 41.2034 183.165 45.1789C183.159 45.2354 183.159 45.2919 183.159 45.3483V71.8556H174.7V45.3483C174.7 43.7446 174.31 42.3046 173.605 41.1187C173.605 41.1187 173.61 41.113 173.605 41.113C173.418 40.7912 173.204 40.4806 172.966 40.1982C172.808 40.0062 172.645 39.8255 172.469 39.6561C172.266 39.4528 172.057 39.2721 171.837 39.1027C171.244 38.6453 170.572 38.2782 169.838 38.0241C169.019 37.7361 168.116 37.5836 167.156 37.5836C166.602 37.5836 166.071 37.6345 165.558 37.7305C165.224 37.7926 164.897 37.8716 164.581 37.9789C161.509 38.9559 159.47 41.7286 159.47 45.3483V71.8556H151.09V45.3483C151.09 44.9982 151.073 44.6537 151.033 44.3206C150.598 40.3168 147.617 37.5836 143.562 37.5836H143.438C143.319 37.5836 143.206 37.5836 143.088 37.5949C138.802 37.753 135.826 40.9154 135.826 45.3483V71.8556H127.406ZM212.978 73.1092C200.43 73.1092 191.412 63.9328 191.412 51.6222C191.412 39.3116 200.43 30.1352 212.825 30.1352C225.22 30.1352 232.748 39.2326 232.748 51.6222C232.748 52.5653 232.669 53.898 232.511 54.6829H200.277C201.373 61.3521 206.162 65.5083 213.062 65.5083C218.083 65.5083 221.691 63.7012 224.594 60.0194L229.535 65.1187C225.537 70.4495 219.89 73.1205 212.983 73.1205L212.978 73.1092ZM200.277 48.5615H224.351C223.724 42.1295 219.172 37.5836 212.667 37.5836C206.162 37.5836 201.373 41.898 200.277 48.5615ZM340.266 31.3822V38.9097H329.994V71.849H321.524V31.3822H340.266ZM379.018 37.657C377.053 33.5799 371.801 30.1295 364.585 30.1295L364.59 30.1352C352.511 30.1352 343.882 39.1535 343.882 51.6222C343.882 64.0909 352.037 73.1092 364.274 73.1092C371.333 73.1092 376.901 69.6589 379.018 64.8758H379.256C379.177 65.9714 379.097 67.1516 379.097 68.953V71.8556H386.862V31.3832H379.097V33.6589C379.097 35.7766 379.177 36.793 379.256 37.657H379.018ZM365.607 37.578C373.292 37.578 378.781 43.3831 378.781 51.5375C378.781 59.6128 373.134 65.497 365.607 65.497C358.079 65.497 352.432 59.6918 352.432 51.5375C352.432 43.3831 357.921 37.578 365.607 37.578ZM428.422 43.4622C426.067 40.0119 422.459 37.578 417.207 37.578C409.6 37.578 404.185 43.3832 404.185 51.5375C404.185 59.6918 409.595 65.497 417.207 65.497C422.617 65.497 426.384 62.8316 428.659 59.3022L433.68 64.4015C430.54 69.4217 424.582 73.1092 417.207 73.1092C404.58 73.1092 395.562 63.9328 395.562 51.6222C395.562 39.3116 404.817 30.1352 417.207 30.1352C424.187 30.1352 429.834 33.1168 433.6 38.2895L428.422 43.4679V43.4622ZM449.352 13.0303H440.888V71.8556H449.358V55.2307C450.397 55.3888 455.197 55.3154 456.417 55.1516L465.904 71.8556H475.47L464.255 52.7968C473.934 47.6015 476.662 31.3832 468.682 31.3832H464.724L464.73 31.4294L464.742 31.5224C465.054 33.9277 466.89 48.0872 452.413 48.0872C451.312 48.0872 450.296 48.0872 449.352 47.929V13.0303ZM501.524 73.1092C488.977 73.1092 479.958 63.9328 479.958 51.6222C479.958 39.3116 488.977 30.1352 501.372 30.1352C513.767 30.1352 521.295 39.2326 521.295 51.6222C521.295 52.5653 521.216 53.898 521.057 54.6829H488.824C489.92 61.3521 494.708 65.5083 501.609 65.5083C506.629 65.5083 510.238 63.7012 513.14 60.0194L518.081 65.1187C514.083 70.4495 508.436 73.1205 501.53 73.1205L501.524 73.1092ZM488.824 48.5615H512.897C512.271 42.1295 507.719 37.5836 501.214 37.5836C494.708 37.5836 489.92 41.898 488.824 48.5615ZM548.421 38.9097V31.3822H529.678V71.849H538.149V38.9097H548.421ZM313.989 31.3821V38.7572H308.524V38.7633H303.011V64.4061H312.815V71.8545H294.541V38.7633H293.832V38.7572H290.226V31.3821H293.832V31.364H294.541V20.873H303.011V31.364H308.524V31.3821H313.989Z" fill="white"/>
</svg>
