<svg width="870" height="192" viewBox="0 0 870 192" fill="none" xmlns="http://www.w3.org/2000/svg">
<path d="M185.188 72.3193L185.087 72.2171C179.764 66.9599 172.509 64.8608 165.617 65.8546L165.46 39.0483C165.423 32.9087 162.998 27.1499 158.623 22.8309C154.257 18.5117 148.462 16.1339 142.322 16.1989H142.172C134.695 16.2454 128.054 19.8771 123.893 25.4501L104.841 6.6319C100.504 2.34996 94.7725 0 88.6884 0C88.6421 0 88.5956 0 88.5492 0C82.4094 0.0371535 76.6503 2.46143 72.3312 6.82696L72.229 6.93841C67.9098 11.304 65.5597 17.0906 65.5969 23.2395C65.5969 24.3076 65.6898 25.3665 65.8384 26.4162L39.0685 26.574C26.3895 26.6484 16.1441 37.0235 16.2185 49.7021V49.8507C16.2556 55.9904 18.68 61.7491 23.0548 66.0682C23.8165 66.8205 24.6246 67.5079 25.47 68.1396L6.65111 87.1808C2.3226 91.5463 -0.0367223 97.3422 0.000432228 103.482C0.0375868 109.621 2.46192 115.38 6.83689 119.699L6.93906 119.801C11.2769 124.083 17.008 126.433 23.092 126.433C23.1385 126.433 23.185 126.433 23.2313 126.433C24.2996 126.433 25.3585 126.341 26.4081 126.192L26.5659 152.961C26.6031 159.101 29.0274 164.859 33.4024 169.178C37.7402 173.461 43.4713 175.81 49.5555 175.81C49.6018 175.81 49.6483 175.81 49.6947 175.81H49.8433C57.3207 175.764 63.9529 172.132 68.1234 166.559L87.1745 185.377C91.6516 189.799 97.4941 192 103.337 192C109.179 192 115.198 189.725 119.694 185.183L119.796 185.072C125.054 179.749 127.153 172.494 126.159 165.603L152.966 165.445C165.645 165.37 175.891 154.995 175.816 142.316V142.168C175.779 136.028 173.355 130.27 168.98 125.95C168.218 125.198 167.41 124.511 166.565 123.879L185.375 104.838C194.282 95.8188 194.199 81.2362 185.179 72.3193H185.188ZM136.237 88.9547C135.16 89.9579 134.064 91.0633 132.949 92.28L126.995 98.3081L130.961 102.228L140.204 92.8745C147.337 86.2797 154.294 84.1063 160.898 86.4284C167.131 88.6112 169.955 95.6517 169.992 101.661V101.81C170.047 111.414 162.282 119.272 152.677 119.337L129.419 119.476C127.952 119.421 126.4 119.43 124.766 119.504L116.294 119.56L116.331 125.133L129.456 125.049C139.182 125.43 145.638 128.811 148.674 135.127C151.535 141.082 148.553 148.057 144.328 152.338L144.225 152.441C140.956 155.748 136.59 157.587 131.936 157.614C127.273 157.67 122.899 155.859 119.592 152.589L103.049 136.251C102.046 135.174 100.949 134.078 99.7327 132.972L93.7043 127.019L89.7845 130.985L99.1382 140.227C105.733 147.37 107.907 154.317 105.594 160.93C103.411 167.163 96.3702 169.987 90.3604 170.024H90.2118C90.2118 170.024 90.1375 170.024 90.1003 170.024C80.5423 170.024 72.7399 162.277 72.6842 152.71L72.5448 129.461C72.6005 127.984 72.5912 126.433 72.517 124.789L72.4612 116.318L66.8881 116.355L66.9716 129.508C66.5908 139.223 63.2097 145.669 56.8934 148.707C50.9394 151.568 43.9637 148.586 39.6816 144.359L39.5794 144.258C36.2726 140.988 34.4335 136.623 34.4057 131.969C34.3777 127.316 36.1611 122.932 39.4307 119.625L55.7603 103.092C56.8377 102.089 57.9338 100.983 59.0484 99.7665L65.0025 93.7382L61.0362 89.8186L51.794 99.172C44.6509 105.767 37.7031 107.94 31.0896 105.627C24.8569 103.445 22.0331 96.404 21.9959 90.3944V90.2459C21.9402 80.6416 29.7055 72.7838 39.31 72.7186L62.6059 72.5794C63.219 72.5979 63.8507 72.6165 64.4916 72.6165C65.374 72.6165 66.2936 72.5979 67.2316 72.5515L75.7029 72.4958L75.6658 66.9227L62.5131 67.0064C52.8064 66.6255 46.3509 63.2445 43.3135 56.9284C40.4525 50.9746 43.4342 43.999 47.6512 39.7264L47.7533 39.6243C51.0231 36.3175 55.3887 34.4784 60.0423 34.4506C64.6866 34.4412 69.0801 36.2061 72.3869 39.4756L88.9207 55.8139C89.9238 56.8912 91.0292 57.9873 92.246 59.102L98.2743 65.0558L102.194 61.0896L92.8405 51.8477C86.2456 44.705 84.0721 37.7572 86.3849 31.1439C88.5677 24.9115 95.6086 22.0878 101.618 22.0507H101.767C106.402 21.9856 110.805 23.8061 114.111 27.0756C117.418 30.3451 119.257 34.7107 119.285 39.3641L119.425 62.6037C119.369 64.0805 119.378 65.6316 119.453 67.2757L119.508 75.7467L125.081 75.7096L124.998 62.5572C125.379 52.8509 128.76 46.3954 135.076 43.3581C141.03 40.4973 148.006 43.4789 152.278 47.6958L152.389 47.8073C155.697 51.0768 157.537 55.4423 157.564 60.0957C157.591 64.7493 155.809 69.1334 152.539 72.4401L136.2 88.9734L136.237 88.9547ZM142.209 21.7813H142.359C147.012 21.7255 151.397 23.5367 154.703 26.8062C158.01 30.0757 159.849 34.4412 159.876 39.0948L159.933 48.411C158.948 46.7576 157.741 45.2159 156.338 43.8318L156.227 43.7203C149.418 36.9957 139.961 34.8221 132.689 38.3239C130.069 39.5871 127.273 41.5747 124.923 44.6957L124.886 39.3084C124.831 29.7042 132.596 21.8463 142.201 21.7813H142.209ZM76.186 10.8488L76.2881 10.7467C79.5577 7.43999 83.9234 5.60089 88.5771 5.57302C93.2214 5.508 97.6149 7.32853 100.922 10.598L107.526 17.1184C105.668 16.6541 103.736 16.4219 101.767 16.4497H101.618C92.0417 16.5054 83.8212 21.6605 81.1553 29.277C80.1894 32.0263 79.6227 35.4073 80.1708 39.2713L76.3346 35.4816C73.0279 32.2121 71.1886 27.8466 71.1608 23.1931C71.1329 18.5397 72.9164 14.1555 76.1953 10.8395L76.186 10.8488ZM21.7824 49.8136V49.6649C21.7265 40.0608 29.4919 32.2028 39.0964 32.1378L48.4129 32.0821C46.7596 33.0667 45.2176 34.2741 43.8335 35.6766L43.7314 35.7881C37.0064 42.5964 34.8329 52.052 38.3346 59.3248C39.5979 61.9441 41.5857 64.7399 44.7159 67.0899L39.3194 67.127C34.6843 67.2014 30.2815 65.3716 26.9746 62.1021C23.6679 58.8325 21.8287 54.467 21.8009 49.8136H21.7824ZM23.2035 120.86C23.2035 120.86 23.1292 120.86 23.092 120.86C18.4756 120.86 14.1378 119.077 10.8496 115.835L10.7474 115.733C7.44065 112.464 5.60149 108.098 5.57363 103.445C5.54576 98.7911 7.32918 94.4071 10.5988 91.1004L17.1565 84.4685C16.6828 86.3169 16.4413 88.2581 16.4506 90.2551V90.4038C16.5063 99.98 21.6615 108.2 29.2783 110.866C31.2846 111.572 33.6346 112.064 36.2726 112.064C37.2387 112.064 38.2511 111.99 39.2914 111.841L35.4924 115.687C32.2228 118.993 27.8572 120.832 23.2035 120.86ZM49.8155 170.237H49.6668C45.0133 170.312 40.629 168.481 37.3222 165.212C34.0155 161.942 32.1763 157.577 32.1485 152.924L32.0927 143.608C33.0774 145.26 34.2848 146.803 35.6874 148.197L35.7896 148.298C40.4339 152.887 46.3044 155.349 51.8683 155.349C54.4692 155.349 57.0142 154.81 59.327 153.695C61.9464 152.432 64.7423 150.444 67.0924 147.323L67.1295 152.71C67.1853 162.314 59.4199 170.172 49.8155 170.237ZM115.839 181.16L115.737 181.271C108.984 188.108 97.9399 188.174 91.1036 181.421L84.4714 174.863C86.2827 175.318 88.1684 175.569 90.119 175.569C90.1654 175.569 90.2119 175.569 90.2582 175.569H90.4069C99.9834 175.513 108.204 170.357 110.87 162.742C111.836 159.992 112.402 156.612 111.854 152.747L115.691 156.538C122.527 163.289 122.592 174.333 115.839 181.17V181.16ZM170.243 142.205V142.354C170.298 151.958 162.533 159.815 152.928 159.881L143.612 159.936C145.266 158.943 146.808 157.744 148.201 156.333L148.303 156.23C155.028 149.423 157.202 139.967 153.699 132.694C152.436 130.074 150.449 127.279 147.327 124.929L152.724 124.891C157.35 124.826 161.762 126.647 165.069 129.917C168.375 133.186 170.214 137.552 170.243 142.205ZM174.869 107.55C175.342 105.702 175.584 103.76 175.574 101.763V101.615C175.519 92.0385 170.364 83.8183 162.747 81.1525C159.997 80.1866 156.616 79.6199 152.753 80.168L156.542 76.3318C163.295 69.4956 174.338 69.4306 181.175 76.1833L181.278 76.2854C188.115 83.0381 188.179 94.0819 181.426 100.918L174.869 107.55Z" fill="url(#paint0_linear_7_99)"/>
<path fill-rule="evenodd" clip-rule="evenodd" d="M858.455 34.9935C852.635 34.9935 847.916 30.2753 847.916 24.455C847.916 18.6347 852.635 13.9164 858.455 13.9164C864.275 13.9164 868.994 18.6347 868.994 24.455C868.994 30.2753 864.275 34.9935 858.455 34.9935ZM847 24.455C847 18.1286 852.129 13 858.455 13C864.781 13 869.91 18.1286 869.91 24.455C869.91 30.7814 864.781 35.91 858.455 35.91C852.129 35.91 847 30.7814 847 24.455ZM857.166 25.7221V28.5789H855.249V20.3313H856.527H857.166H858.38C858.951 20.3313 859.466 20.4508 859.926 20.6899C860.394 20.9289 860.761 21.2597 861.025 21.6819C861.298 22.0963 861.434 22.5585 861.434 23.0686C861.434 23.5706 861.301 24.0247 861.037 24.4312C860.773 24.8376 860.411 25.1563 859.951 25.3875C859.904 25.4103 859.857 25.4321 859.808 25.4526L861.664 28.5789H859.364L857.801 25.7221H857.166ZM857.166 22.0167V24.1683H858.342C858.546 24.1683 858.733 24.1204 858.904 24.0247C859.083 23.9291 859.219 23.8017 859.313 23.6423C859.415 23.4749 859.466 23.2916 859.466 23.0925C859.466 22.8932 859.415 22.7139 859.313 22.5546C859.219 22.3872 859.083 22.2557 858.904 22.1601C858.733 22.0645 858.546 22.0167 858.342 22.0167H857.166Z" fill="url(#paint1_linear_7_99)"/>
<path fill-rule="evenodd" clip-rule="evenodd" d="M424.943 36.6185C433.32 36.6185 441.372 40.0818 444.572 45.8304H445.017C444.794 44.637 444.683 43.3422 444.683 40.3079V13H456.482V94.2453H445.564V90.6729C445.564 88.1846 445.675 86.4452 445.787 85.0413H445.453C441.706 92.0847 433.765 95.985 424.498 95.985C407.514 95.985 396.048 83.6372 396.048 66.3055C396.048 48.9738 407.847 36.6263 424.943 36.6263V36.6185ZM445.128 66.1885C445.128 54.9252 437.41 46.9068 426.603 46.9068C415.796 46.9068 408.077 54.9252 408.077 66.1885C408.077 77.4518 416.018 85.4702 426.603 85.4702C437.187 85.4702 445.128 77.3426 445.128 66.1885ZM240 57.7488V94.2531H251.839V57.6397C251.839 51.5166 256.024 47.1486 262.051 46.9302C262.218 46.9146 262.376 46.9146 262.543 46.9146H262.717C268.419 46.9146 272.611 50.6898 273.223 56.22C273.524 51.2748 275.312 47.0004 278.218 43.7088C278.464 43.428 278.718 43.1549 278.987 42.8898C274.954 38.9274 269.197 36.6185 262.646 36.6185H262.059C254.889 36.6185 248.87 39.2939 244.939 43.818C241.803 47.4294 240 52.2108 240 57.7488ZM273.223 56.22C273.279 56.6803 273.302 57.1561 273.302 57.6397V94.2531H285.087V57.6397C285.087 52.6398 287.953 48.81 292.272 47.4606C292.717 47.3124 293.178 47.2032 293.646 47.1174C294.369 46.9848 295.115 46.9146 295.893 46.9146C297.243 46.9146 298.514 47.1252 299.665 47.523C300.697 47.874 301.642 48.381 302.475 49.0128C302.786 49.2468 303.079 49.4964 303.365 49.7772C303.611 50.0112 303.841 50.2609 304.064 50.526C304.397 50.916 304.699 51.345 304.961 51.7896C304.969 51.7896 304.961 51.7974 304.961 51.7974C305.953 53.4354 306.502 55.4245 306.502 57.6397V94.2531H318.396V57.6397C318.396 57.5617 318.396 57.4837 318.404 57.4057C318.333 51.9145 316.355 47.1876 313.085 43.6308C309.034 39.2238 302.976 36.6185 296.02 36.6185C295.885 36.6185 295.758 36.6185 295.623 36.6263C295.497 36.6185 295.361 36.6185 295.234 36.6185C288.564 36.6185 282.894 38.9352 278.987 42.8898C278.718 43.1549 278.464 43.428 278.218 43.7088C275.312 47.0004 273.524 51.2748 273.223 56.22ZM330 66.3055C330 83.3097 342.681 95.985 360.325 95.985L360.332 96C370.044 96 377.984 92.3109 383.606 84.9477L376.658 77.9042C372.576 82.9898 367.503 85.4858 360.444 85.4858C350.741 85.4858 344.007 79.7451 342.466 70.5332H387.791C388.013 69.449 388.125 67.6082 388.125 66.3055C388.125 49.1922 377.54 36.6263 360.11 36.6263C342.681 36.6263 330 49.3015 330 66.3055ZM376.317 62.0779H342.466C344.007 52.8739 350.741 46.9146 359.888 46.9146C369.035 46.9146 375.436 53.1936 376.317 62.0779ZM539.308 48.7463V38.3489H512.954V94.244H524.865V48.7463H539.308ZM573.503 36.6185C583.652 36.6185 591.035 41.3843 593.799 47.016H594.133C594.022 45.8225 593.91 44.4186 593.91 41.4936V38.3502H604.829V94.2531H593.91V90.2439C593.91 87.7557 594.022 86.1255 594.133 84.6122H593.799C590.822 91.2189 582.992 95.985 573.067 95.985C555.859 95.985 544.394 83.5281 544.394 66.3055C544.394 49.083 556.527 36.6263 573.511 36.6263L573.503 36.6185ZM593.466 66.1885C593.466 54.9252 585.747 46.9068 574.941 46.9068C564.134 46.9068 556.416 54.9252 556.416 66.1885C556.416 77.4518 564.355 85.4702 574.941 85.4702C585.526 85.4702 593.466 77.3426 593.466 66.1885ZM647.497 46.9068C654.882 46.9068 659.956 50.2687 663.267 55.0344V55.0422L670.548 47.8896C665.252 40.7448 657.311 36.6263 647.497 36.6263C630.076 36.6263 617.062 49.3015 617.062 66.3055C617.062 83.3097 629.743 95.985 647.497 95.985C657.867 95.985 666.244 90.8912 670.66 83.957L663.601 76.9136C660.401 81.7886 655.105 85.4702 647.497 85.4702C636.794 85.4702 629.187 77.4518 629.187 66.1885C629.187 54.9252 636.802 46.9068 647.497 46.9068ZM680.795 13H692.697V61.2043C694.024 61.4227 695.453 61.4227 697.001 61.4227C717.358 61.4227 714.776 41.8648 714.337 38.5425L714.32 38.4139L714.311 38.3502H719.878C731.098 38.3502 727.263 60.7519 713.653 67.9279L729.423 94.2531H715.971L702.631 71.1806C700.916 71.4068 694.167 71.5081 692.706 71.2898V94.2531H680.795V13ZM735.734 66.3055C735.734 83.3097 748.415 95.985 766.058 95.985L766.066 96C775.777 96 783.717 92.3109 789.339 84.9477L782.392 77.9042C778.31 82.9898 773.236 85.4858 766.177 85.4858C756.473 85.4858 749.74 79.7451 748.2 70.5332H793.524C793.747 69.449 793.858 67.6082 793.858 66.3055C793.858 49.1922 783.274 36.6263 765.844 36.6263C748.415 36.6263 735.734 49.3015 735.734 66.3055ZM782.05 62.0779H748.2C749.74 52.8739 756.473 46.9146 765.621 46.9146C774.769 46.9146 781.168 53.1936 782.05 62.0779ZM832 38.3489V48.7463H817.556V94.244H805.646V38.3489H832ZM502.36 48.5355V38.3488H494.675V38.3237H486.923V23.8328H475.013V38.3237H474.015V38.3488H468.946V48.5355H474.015V48.544H475.013V94.2517H500.708V83.9634H486.923V48.544H494.675V48.5355H502.36Z" fill="url(#paint2_linear_7_99)"/>
<path d="M250.428 151.384C248.871 151.384 247.452 151.107 246.172 150.552C244.914 149.997 243.847 149.229 242.972 148.248C242.119 147.245 241.543 146.083 241.244 144.76L244.508 143.576C244.914 145.005 245.639 146.115 246.684 146.904C247.751 147.672 249.01 148.056 250.46 148.056C251.42 148.056 252.242 147.896 252.924 147.576C253.607 147.256 254.13 146.829 254.492 146.296C254.876 145.741 255.068 145.123 255.068 144.44C255.068 143.715 254.844 143.107 254.396 142.616C253.97 142.125 253.308 141.741 252.412 141.464L248.22 140.12C246.599 139.587 245.372 138.797 244.54 137.752C243.73 136.707 243.324 135.459 243.324 134.008C243.324 132.664 243.676 131.448 244.38 130.36C245.084 129.272 246.055 128.408 247.292 127.768C248.53 127.107 249.938 126.776 251.516 126.776C252.967 126.776 254.268 127.032 255.42 127.544C256.594 128.056 257.564 128.76 258.332 129.656C259.1 130.552 259.623 131.576 259.9 132.728L256.668 133.912C256.327 132.717 255.698 131.779 254.78 131.096C253.863 130.413 252.754 130.072 251.452 130.072C250.578 130.072 249.81 130.232 249.148 130.552C248.487 130.851 247.975 131.267 247.612 131.8C247.25 132.333 247.068 132.963 247.068 133.688C247.068 134.413 247.282 135.043 247.708 135.576C248.156 136.088 248.85 136.504 249.788 136.824L253.66 138.104C255.388 138.659 256.679 139.448 257.532 140.472C258.407 141.496 258.844 142.733 258.844 144.184C258.844 145.485 258.482 146.691 257.756 147.8C257.031 148.888 256.039 149.763 254.78 150.424C253.522 151.064 252.071 151.384 250.428 151.384ZM261.866 151L264.266 133.688H267.914L265.482 151H261.866ZM264.618 131.32L265.194 127.16H268.81L268.234 131.32H264.618ZM276.397 151.384C275.223 151.384 274.146 151.181 273.165 150.776C272.183 150.371 271.351 149.795 270.669 149.048C270.007 148.301 269.549 147.437 269.293 146.456L272.141 145.304C272.503 146.285 273.069 147.053 273.837 147.608C274.626 148.163 275.543 148.44 276.589 148.44C277.527 148.44 278.263 148.227 278.797 147.8C279.351 147.352 279.629 146.797 279.629 146.136C279.629 145.624 279.437 145.219 279.053 144.92C278.69 144.621 278.21 144.387 277.613 144.216L274.957 143.48C273.655 143.117 272.663 142.541 271.981 141.752C271.298 140.941 270.957 139.981 270.957 138.872C270.957 137.805 271.245 136.856 271.821 136.024C272.397 135.192 273.186 134.531 274.189 134.04C275.191 133.549 276.311 133.304 277.549 133.304C279.191 133.304 280.589 133.709 281.741 134.52C282.914 135.331 283.693 136.429 284.077 137.816L281.165 138.968C280.93 138.115 280.471 137.464 279.789 137.016C279.106 136.547 278.317 136.312 277.421 136.312C276.567 136.312 275.863 136.515 275.309 136.92C274.775 137.304 274.509 137.827 274.509 138.488C274.509 139 274.69 139.405 275.053 139.704C275.415 140.003 275.885 140.237 276.461 140.408L279.181 141.24C280.482 141.645 281.474 142.243 282.157 143.032C282.861 143.821 283.213 144.76 283.213 145.848C283.213 146.893 282.914 147.832 282.317 148.664C281.741 149.496 280.941 150.157 279.917 150.648C278.893 151.139 277.719 151.384 276.397 151.384ZM293.7 151.192C291.844 151.192 290.468 150.669 289.572 149.624C288.698 148.557 288.388 147.096 288.644 145.24L289.796 136.952H286.724L287.204 133.688H287.588C288.399 133.688 289.082 133.443 289.636 132.952C290.191 132.44 290.522 131.779 290.628 130.968L290.82 129.72H294.468L293.892 133.688H297.796L297.316 136.952H293.444L292.26 145.272C292.175 145.869 292.186 146.371 292.292 146.776C292.42 147.181 292.666 147.491 293.028 147.704C293.391 147.896 293.903 147.992 294.564 147.992C294.778 147.992 294.98 147.981 295.172 147.96C295.386 147.939 295.61 147.917 295.844 147.896L295.556 151.032C295.279 151.096 294.959 151.139 294.596 151.16C294.255 151.181 293.956 151.192 293.7 151.192ZM307.51 151.384C305.846 151.384 304.385 151.021 303.126 150.296C301.889 149.549 300.918 148.536 300.214 147.256C299.531 145.976 299.19 144.536 299.19 142.936C299.19 141.613 299.414 140.376 299.862 139.224C300.331 138.051 300.971 137.027 301.782 136.152C302.614 135.256 303.574 134.563 304.662 134.072C305.771 133.56 306.977 133.304 308.278 133.304C309.963 133.304 311.382 133.656 312.534 134.36C313.707 135.064 314.593 136.013 315.19 137.208C315.787 138.381 316.086 139.672 316.086 141.08C316.086 141.443 316.054 141.827 315.99 142.232C315.926 142.637 315.862 143.021 315.798 143.384H301.974L302.198 140.504H313.942L312.118 141.752C312.417 140.749 312.427 139.843 312.15 139.032C311.873 138.2 311.393 137.549 310.71 137.08C310.027 136.589 309.206 136.344 308.246 136.344C307.03 136.344 306.027 136.653 305.238 137.272C304.449 137.869 303.862 138.691 303.478 139.736C303.094 140.781 302.902 141.976 302.902 143.32C302.902 144.323 303.105 145.197 303.51 145.944C303.915 146.669 304.47 147.224 305.174 147.608C305.878 147.992 306.678 148.184 307.574 148.184C308.641 148.184 309.558 147.939 310.326 147.448C311.115 146.957 311.755 146.339 312.246 145.592L315.126 147.16C314.721 147.971 314.134 148.696 313.366 149.336C312.619 149.976 311.745 150.477 310.742 150.84C309.739 151.203 308.662 151.384 307.51 151.384ZM318.366 151L320.766 133.688H324.222L323.742 137.304L323.358 136.728C323.934 135.555 324.691 134.691 325.63 134.136C326.59 133.581 327.667 133.304 328.862 133.304C330.248 133.304 331.432 133.677 332.414 134.424C333.395 135.149 334.035 136.141 334.333 137.4L333.15 137.432C333.832 136.003 334.76 134.957 335.934 134.296C337.128 133.635 338.398 133.304 339.742 133.304C341 133.304 342.078 133.592 342.974 134.168C343.891 134.744 344.574 135.544 345.022 136.568C345.47 137.571 345.598 138.733 345.406 140.056L343.87 151H340.286L341.726 140.6C341.832 139.789 341.768 139.096 341.534 138.52C341.32 137.923 340.968 137.464 340.478 137.144C340.008 136.824 339.411 136.664 338.686 136.664C337.982 136.664 337.32 136.824 336.702 137.144C336.083 137.464 335.56 137.923 335.134 138.52C334.728 139.096 334.472 139.789 334.366 140.6L332.926 151H329.31L330.75 140.6C330.878 139.789 330.824 139.096 330.59 138.52C330.376 137.923 330.024 137.464 329.534 137.144C329.043 136.824 328.435 136.664 327.71 136.664C326.984 136.664 326.312 136.835 325.694 137.176C325.075 137.517 324.563 137.997 324.158 138.616C323.752 139.235 323.486 139.971 323.358 140.824L321.95 151H318.366ZM353.372 151.384C352.305 151.384 351.345 151.213 350.492 150.872C349.638 150.509 348.956 149.976 348.444 149.272C347.953 148.568 347.708 147.693 347.708 146.648C347.708 145.603 347.974 144.685 348.508 143.896C349.041 143.107 349.788 142.467 350.748 141.976C351.708 141.464 352.817 141.112 354.076 140.92L360.284 139.928L359.996 142.776L354.652 143.704C353.713 143.875 352.945 144.195 352.348 144.664C351.772 145.112 351.484 145.709 351.484 146.456C351.484 147.117 351.718 147.629 352.188 147.992C352.678 148.355 353.318 148.536 354.108 148.536C355.046 148.536 355.889 148.323 356.636 147.896C357.382 147.448 358.001 146.861 358.492 146.136C359.004 145.389 359.313 144.579 359.42 143.704L359.996 139.48C360.081 138.819 359.974 138.264 359.676 137.816C359.398 137.368 359.004 137.027 358.492 136.792C357.98 136.557 357.414 136.44 356.796 136.44C355.793 136.44 354.897 136.707 354.108 137.24C353.34 137.752 352.742 138.413 352.316 139.224L349.404 137.56C349.83 136.707 350.428 135.96 351.196 135.32C351.964 134.68 352.849 134.189 353.852 133.848C354.854 133.485 355.91 133.304 357.02 133.304C358.385 133.304 359.59 133.571 360.636 134.104C361.681 134.637 362.481 135.384 363.036 136.344C363.59 137.283 363.782 138.381 363.612 139.64L362.012 151H358.556L358.972 147.864L359.836 148.024C359.345 148.749 358.769 149.368 358.108 149.88C357.446 150.371 356.71 150.744 355.9 151C355.11 151.256 354.268 151.384 353.372 151.384ZM380.506 151.384C378.906 151.384 377.487 151.032 376.25 150.328C375.034 149.603 374.074 148.621 373.37 147.384C372.687 146.125 372.346 144.696 372.346 143.096C372.346 141.667 372.591 140.365 373.082 139.192C373.572 137.997 374.244 136.963 375.098 136.088C375.951 135.192 376.943 134.509 378.074 134.04C379.226 133.549 380.452 133.304 381.754 133.304C383.204 133.304 384.463 133.592 385.53 134.168C386.596 134.744 387.428 135.544 388.026 136.568L387.322 137.272L388.762 126.776H392.41L389.017 151H385.562L386.042 147.48L386.906 148.024C386.244 149.133 385.338 149.976 384.186 150.552C383.055 151.107 381.828 151.384 380.506 151.384ZM380.922 148.024C382.052 148.024 383.044 147.736 383.898 147.16C384.772 146.584 385.455 145.827 385.946 144.888C386.458 143.928 386.714 142.883 386.714 141.752C386.714 140.771 386.511 139.896 386.106 139.128C385.7 138.36 385.135 137.763 384.41 137.336C383.684 136.888 382.852 136.664 381.914 136.664C380.804 136.664 379.812 136.952 378.938 137.528C378.063 138.083 377.37 138.84 376.858 139.8C376.367 140.739 376.122 141.784 376.122 142.936C376.122 143.917 376.324 144.792 376.73 145.56C377.135 146.328 377.7 146.936 378.426 147.384C379.151 147.811 379.983 148.024 380.922 148.024ZM402.104 151.384C400.44 151.384 398.978 151.021 397.72 150.296C396.482 149.549 395.512 148.536 394.808 147.256C394.125 145.976 393.784 144.536 393.784 142.936C393.784 141.613 394.008 140.376 394.456 139.224C394.925 138.051 395.565 137.027 396.376 136.152C397.208 135.256 398.168 134.563 399.256 134.072C400.365 133.56 401.57 133.304 402.872 133.304C404.557 133.304 405.976 133.656 407.128 134.36C408.301 135.064 409.186 136.013 409.784 137.208C410.381 138.381 410.68 139.672 410.68 141.08C410.68 141.443 410.648 141.827 410.584 142.232C410.52 142.637 410.456 143.021 410.392 143.384H396.568L396.792 140.504H408.536L406.712 141.752C407.01 140.749 407.021 139.843 406.744 139.032C406.466 138.2 405.986 137.549 405.304 137.08C404.621 136.589 403.8 136.344 402.84 136.344C401.624 136.344 400.621 136.653 399.832 137.272C399.042 137.869 398.456 138.691 398.072 139.736C397.688 140.781 397.496 141.976 397.496 143.32C397.496 144.323 397.698 145.197 398.104 145.944C398.509 146.669 399.064 147.224 399.768 147.608C400.472 147.992 401.272 148.184 402.168 148.184C403.234 148.184 404.152 147.939 404.92 147.448C405.709 146.957 406.349 146.339 406.84 145.592L409.72 147.16C409.314 147.971 408.728 148.696 407.96 149.336C407.213 149.976 406.338 150.477 405.336 150.84C404.333 151.203 403.256 151.384 402.104 151.384ZM418.553 151L420.953 133.688H424.441L423.961 137.176L423.673 136.664C424.228 135.533 424.964 134.723 425.881 134.232C426.798 133.72 427.854 133.464 429.049 133.464H430.105L429.657 136.76H428.153C426.937 136.76 425.913 137.144 425.081 137.912C424.249 138.68 423.726 139.821 423.513 141.336L422.169 151H418.553ZM435.747 151.384C434.68 151.384 433.72 151.213 432.867 150.872C432.013 150.509 431.331 149.976 430.819 149.272C430.328 148.568 430.083 147.693 430.083 146.648C430.083 145.603 430.349 144.685 430.883 143.896C431.416 143.107 432.163 142.467 433.123 141.976C434.083 141.464 435.192 141.112 436.451 140.92L442.659 139.928L442.371 142.776L437.027 143.704C436.088 143.875 435.32 144.195 434.723 144.664C434.147 145.112 433.859 145.709 433.859 146.456C433.859 147.117 434.093 147.629 434.563 147.992C435.053 148.355 435.693 148.536 436.483 148.536C437.421 148.536 438.264 148.323 439.011 147.896C439.757 147.448 440.376 146.861 440.867 146.136C441.379 145.389 441.688 144.579 441.795 143.704L442.371 139.48C442.456 138.819 442.349 138.264 442.051 137.816C441.773 137.368 441.379 137.027 440.867 136.792C440.355 136.557 439.789 136.44 439.171 136.44C438.168 136.44 437.272 136.707 436.483 137.24C435.715 137.752 435.117 138.413 434.691 139.224L431.779 137.56C432.205 136.707 432.803 135.96 433.571 135.32C434.339 134.68 435.224 134.189 436.227 133.848C437.229 133.485 438.285 133.304 439.395 133.304C440.76 133.304 441.965 133.571 443.011 134.104C444.056 134.637 444.856 135.384 445.411 136.344C445.965 137.283 446.157 138.381 445.987 139.64L444.387 151H440.931L441.347 147.864L442.211 148.024C441.72 148.749 441.144 149.368 440.483 149.88C439.821 150.371 439.085 150.744 438.275 151C437.485 151.256 436.643 151.384 435.747 151.384ZM455.303 151.384C454.129 151.384 453.052 151.181 452.071 150.776C451.089 150.371 450.257 149.795 449.575 149.048C448.913 148.301 448.455 147.437 448.199 146.456L451.047 145.304C451.409 146.285 451.975 147.053 452.743 147.608C453.532 148.163 454.449 148.44 455.495 148.44C456.433 148.44 457.169 148.227 457.703 147.8C458.257 147.352 458.535 146.797 458.535 146.136C458.535 145.624 458.343 145.219 457.959 144.92C457.596 144.621 457.116 144.387 456.519 144.216L453.863 143.48C452.561 143.117 451.569 142.541 450.887 141.752C450.204 140.941 449.863 139.981 449.863 138.872C449.863 137.805 450.151 136.856 450.727 136.024C451.303 135.192 452.092 134.531 453.095 134.04C454.097 133.549 455.217 133.304 456.455 133.304C458.097 133.304 459.495 133.709 460.647 134.52C461.82 135.331 462.599 136.429 462.983 137.816L460.071 138.968C459.836 138.115 459.377 137.464 458.695 137.016C458.012 136.547 457.223 136.312 456.327 136.312C455.473 136.312 454.769 136.515 454.215 136.92C453.681 137.304 453.415 137.827 453.415 138.488C453.415 139 453.596 139.405 453.959 139.704C454.321 140.003 454.791 140.237 455.367 140.408L458.087 141.24C459.388 141.645 460.38 142.243 461.063 143.032C461.767 143.821 462.119 144.76 462.119 145.848C462.119 146.893 461.82 147.832 461.223 148.664C460.647 149.496 459.847 150.157 458.823 150.648C457.799 151.139 456.625 151.384 455.303 151.384ZM472.607 151.192C470.751 151.192 469.375 150.669 468.479 149.624C467.604 148.557 467.295 147.096 467.551 145.24L468.703 136.952H465.631L466.111 133.688H466.495C467.305 133.688 467.988 133.443 468.543 132.952C469.097 132.44 469.428 131.779 469.535 130.968L469.727 129.72H473.375L472.799 133.688H476.703L476.223 136.952H472.351L471.167 145.272C471.081 145.869 471.092 146.371 471.199 146.776C471.327 147.181 471.572 147.491 471.935 147.704C472.297 147.896 472.809 147.992 473.47 147.992C473.684 147.992 473.887 147.981 474.079 147.96C474.292 147.939 474.516 147.917 474.751 147.896L474.463 151.032C474.185 151.096 473.865 151.139 473.503 151.16C473.161 151.181 472.863 151.192 472.607 151.192ZM478.053 151L480.453 133.688H483.941L483.461 137.176L483.173 136.664C483.728 135.533 484.464 134.723 485.381 134.232C486.298 133.72 487.354 133.464 488.549 133.464H489.605L489.157 136.76H487.653C486.437 136.76 485.413 137.144 484.581 137.912C483.749 138.68 483.226 139.821 483.013 141.336L481.669 151H478.053ZM498.479 151.384C496.815 151.384 495.353 151.021 494.095 150.296C492.857 149.549 491.887 148.536 491.183 147.256C490.5 145.976 490.159 144.536 490.159 142.936C490.159 141.613 490.383 140.376 490.831 139.224C491.3 138.051 491.94 137.027 492.751 136.152C493.583 135.256 494.543 134.563 495.631 134.072C496.74 133.56 497.945 133.304 499.247 133.304C500.932 133.304 502.351 133.656 503.503 134.36C504.676 135.064 505.561 136.013 506.159 137.208C506.756 138.381 507.055 139.672 507.055 141.08C507.055 141.443 507.023 141.827 506.959 142.232C506.895 142.637 506.831 143.021 506.767 143.384H492.943L493.167 140.504H504.911L503.087 141.752C503.385 140.749 503.396 139.843 503.119 139.032C502.841 138.2 502.361 137.549 501.679 137.08C500.996 136.589 500.175 136.344 499.215 136.344C497.999 136.344 496.996 136.653 496.207 137.272C495.417 137.869 494.831 138.691 494.447 139.736C494.063 140.781 493.871 141.976 493.871 143.32C493.871 144.323 494.073 145.197 494.479 145.944C494.884 146.669 495.439 147.224 496.143 147.608C496.847 147.992 497.647 148.184 498.543 148.184C499.609 148.184 500.527 147.939 501.295 147.448C502.084 146.957 502.724 146.339 503.215 145.592L506.095 147.16C505.689 147.971 505.103 148.696 504.335 149.336C503.588 149.976 502.713 150.477 501.711 150.84C500.708 151.203 499.631 151.384 498.479 151.384ZM514.778 151.384C513.711 151.384 512.751 151.213 511.898 150.872C511.045 150.509 510.362 149.976 509.85 149.272C509.359 148.568 509.114 147.693 509.114 146.648C509.114 145.603 509.381 144.685 509.914 143.896C510.447 143.107 511.194 142.467 512.154 141.976C513.114 141.464 514.223 141.112 515.482 140.92L521.69 139.928L521.402 142.776L516.058 143.704C515.119 143.875 514.351 144.195 513.754 144.664C513.178 145.112 512.89 145.709 512.89 146.456C512.89 147.117 513.125 147.629 513.594 147.992C514.085 148.355 514.725 148.536 515.514 148.536C516.453 148.536 517.295 148.323 518.042 147.896C518.789 147.448 519.407 146.861 519.898 146.136C520.41 145.389 520.719 144.579 520.826 143.704L521.402 139.48C521.487 138.819 521.381 138.264 521.082 137.816C520.805 137.368 520.41 137.027 519.898 136.792C519.386 136.557 518.821 136.44 518.202 136.44C517.199 136.44 516.303 136.707 515.514 137.24C514.746 137.752 514.149 138.413 513.722 139.224L510.81 137.56C511.237 136.707 511.834 135.96 512.602 135.32C513.37 134.68 514.255 134.189 515.258 133.848C516.261 133.485 517.317 133.304 518.426 133.304C519.791 133.304 520.997 133.571 522.042 134.104C523.087 134.637 523.887 135.384 524.442 136.344C524.997 137.283 525.189 138.381 525.018 139.64L523.418 151H519.962L520.378 147.864L521.242 148.024C520.751 148.749 520.175 149.368 519.514 149.88C518.853 150.371 518.117 150.744 517.306 151C516.517 151.256 515.674 151.384 514.778 151.384ZM537.47 151.384C536.083 151.384 534.814 151.096 533.662 150.52C532.531 149.944 531.678 149.133 531.102 148.088L531.614 147.48L531.166 151H527.678L531.07 126.776H534.686L533.246 137.272L532.222 136.408C532.905 135.427 533.79 134.669 534.878 134.136C535.987 133.581 537.214 133.304 538.558 133.304C540.179 133.304 541.598 133.677 542.814 134.424C544.051 135.171 545.011 136.184 545.694 137.464C546.398 138.723 546.75 140.141 546.75 141.72C546.75 143.043 546.515 144.291 546.046 145.464C545.577 146.616 544.915 147.64 544.062 148.536C543.23 149.432 542.249 150.136 541.118 150.648C540.009 151.139 538.793 151.384 537.47 151.384ZM537.182 148.024C538.313 148.024 539.305 147.747 540.158 147.192C541.033 146.616 541.715 145.859 542.206 144.92C542.718 143.96 542.974 142.904 542.974 141.752C542.974 140.771 542.761 139.896 542.334 139.128C541.929 138.36 541.363 137.763 540.638 137.336C539.913 136.888 539.059 136.664 538.078 136.664C536.969 136.664 535.977 136.952 535.102 137.528C534.249 138.083 533.577 138.829 533.086 139.768C532.617 140.707 532.382 141.741 532.382 142.872C532.382 143.875 532.585 144.771 532.99 145.56C533.417 146.328 533.982 146.936 534.686 147.384C535.411 147.811 536.243 148.024 537.182 148.024ZM549.084 151L551.484 133.688H555.132L552.7 151H549.084ZM551.836 131.32L552.412 127.16H556.028L555.452 131.32H551.836ZM556.959 151L560.351 126.776H563.967L560.575 151H556.959ZM564.834 151L567.234 133.688H570.882L568.45 151H564.834ZM567.586 131.32L568.162 127.16H571.778L571.202 131.32H567.586ZM581.349 151.384C579.749 151.384 578.331 151.032 577.093 150.328C575.877 149.603 574.917 148.621 574.213 147.384C573.531 146.125 573.189 144.696 573.189 143.096C573.189 141.667 573.435 140.365 573.925 139.192C574.416 137.997 575.088 136.963 575.941 136.088C576.795 135.192 577.787 134.509 578.917 134.04C580.069 133.549 581.296 133.304 582.597 133.304C584.048 133.304 585.307 133.592 586.373 134.168C587.44 134.744 588.272 135.544 588.869 136.568L588.165 137.272L589.605 126.776H593.253L589.861 151H586.405L586.885 147.48L587.749 148.024C587.088 149.133 586.181 149.976 585.029 150.552C583.899 151.107 582.672 151.384 581.349 151.384ZM581.765 148.024C582.896 148.024 583.888 147.736 584.741 147.16C585.616 146.584 586.299 145.827 586.789 144.888C587.301 143.928 587.557 142.883 587.557 141.752C587.557 140.771 587.355 139.896 586.949 139.128C586.544 138.36 585.979 137.763 585.253 137.336C584.528 136.888 583.696 136.664 582.757 136.664C581.648 136.664 580.656 136.952 579.781 137.528C578.907 138.083 578.213 138.84 577.701 139.8C577.211 140.739 576.965 141.784 576.965 142.936C576.965 143.917 577.168 144.792 577.573 145.56C577.979 146.328 578.544 146.936 579.269 147.384C579.995 147.811 580.827 148.024 581.765 148.024ZM599.716 151.384C598.649 151.384 597.689 151.213 596.836 150.872C595.982 150.509 595.3 149.976 594.788 149.272C594.297 148.568 594.052 147.693 594.052 146.648C594.052 145.603 594.318 144.685 594.852 143.896C595.385 143.107 596.132 142.467 597.092 141.976C598.052 141.464 599.161 141.112 600.42 140.92L606.628 139.928L606.34 142.776L600.996 143.704C600.057 143.875 599.289 144.195 598.692 144.664C598.116 145.112 597.828 145.709 597.828 146.456C597.828 147.117 598.062 147.629 598.532 147.992C599.022 148.355 599.662 148.536 600.452 148.536C601.39 148.536 602.233 148.323 602.98 147.896C603.726 147.448 604.345 146.861 604.836 146.136C605.348 145.389 605.657 144.579 605.764 143.704L606.34 139.48C606.425 138.819 606.318 138.264 606.02 137.816C605.742 137.368 605.348 137.027 604.836 136.792C604.324 136.557 603.758 136.44 603.14 136.44C602.137 136.44 601.241 136.707 600.452 137.24C599.684 137.752 599.086 138.413 598.66 139.224L595.748 137.56C596.174 136.707 596.772 135.96 597.54 135.32C598.308 134.68 599.193 134.189 600.196 133.848C601.198 133.485 602.254 133.304 603.364 133.304C604.729 133.304 605.934 133.571 606.98 134.104C608.025 134.637 608.825 135.384 609.38 136.344C609.934 137.283 610.126 138.381 609.956 139.64L608.356 151H604.9L605.316 147.864L606.18 148.024C605.689 148.749 605.113 149.368 604.452 149.88C603.79 150.371 603.054 150.744 602.244 151C601.454 151.256 600.612 151.384 599.716 151.384ZM621.256 151.384C619.656 151.384 618.237 151.032 617 150.328C615.784 149.603 614.824 148.621 614.12 147.384C613.437 146.125 613.096 144.696 613.096 143.096C613.096 141.667 613.341 140.365 613.832 139.192C614.322 137.997 614.994 136.963 615.848 136.088C616.701 135.192 617.693 134.509 618.824 134.04C619.976 133.549 621.202 133.304 622.504 133.304C623.954 133.304 625.213 133.592 626.28 134.168C627.346 134.744 628.178 135.544 628.776 136.568L628.072 137.272L629.512 126.776H633.16L629.767 151H626.312L626.792 147.48L627.656 148.024C626.994 149.133 626.088 149.976 624.936 150.552C623.805 151.107 622.578 151.384 621.256 151.384ZM621.672 148.024C622.802 148.024 623.794 147.736 624.648 147.16C625.522 146.584 626.205 145.827 626.696 144.888C627.208 143.928 627.464 142.883 627.464 141.752C627.464 140.771 627.261 139.896 626.856 139.128C626.45 138.36 625.885 137.763 625.16 137.336C624.434 136.888 623.602 136.664 622.664 136.664C621.554 136.664 620.562 136.952 619.688 137.528C618.813 138.083 618.12 138.84 617.608 139.8C617.117 140.739 616.872 141.784 616.872 142.936C616.872 143.917 617.074 144.792 617.48 145.56C617.885 146.328 618.45 146.936 619.176 147.384C619.901 147.811 620.733 148.024 621.672 148.024ZM642.854 151.384C641.19 151.384 639.728 151.021 638.47 150.296C637.232 149.549 636.262 148.536 635.558 147.256C634.875 145.976 634.534 144.536 634.534 142.936C634.534 141.613 634.758 140.376 635.206 139.224C635.675 138.051 636.315 137.027 637.126 136.152C637.958 135.256 638.918 134.563 640.006 134.072C641.115 133.56 642.32 133.304 643.622 133.304C645.307 133.304 646.726 133.656 647.878 134.36C649.051 135.064 649.936 136.013 650.534 137.208C651.131 138.381 651.43 139.672 651.43 141.08C651.43 141.443 651.398 141.827 651.334 142.232C651.27 142.637 651.206 143.021 651.142 143.384H637.318L637.542 140.504H649.286L647.462 141.752C647.76 140.749 647.771 139.843 647.494 139.032C647.216 138.2 646.736 137.549 646.054 137.08C645.371 136.589 644.55 136.344 643.59 136.344C642.374 136.344 641.371 136.653 640.582 137.272C639.792 137.869 639.206 138.691 638.822 139.736C638.438 140.781 638.246 141.976 638.246 143.32C638.246 144.323 638.448 145.197 638.854 145.944C639.259 146.669 639.814 147.224 640.518 147.608C641.222 147.992 642.022 148.184 642.918 148.184C643.984 148.184 644.902 147.939 645.67 147.448C646.459 146.957 647.099 146.339 647.59 145.592L650.47 147.16C650.064 147.971 649.478 148.696 648.71 149.336C647.963 149.976 647.088 150.477 646.086 150.84C645.083 151.203 644.006 151.384 642.854 151.384ZM659.303 151L661.703 133.688H665.351L662.919 151H659.303ZM662.055 131.32L662.631 127.16H666.247L665.671 131.32H662.055ZM667.178 151L669.578 133.688H673.034L672.586 137.08L672.202 136.536C672.757 135.448 673.525 134.637 674.506 134.104C675.509 133.571 676.618 133.304 677.834 133.304C679.114 133.304 680.213 133.603 681.13 134.2C682.069 134.797 682.751 135.619 683.178 136.664C683.626 137.709 683.754 138.893 683.562 140.216L682.058 151H678.442L679.882 140.6C680.053 139.405 679.839 138.456 679.242 137.752C678.645 137.027 677.791 136.664 676.682 136.664C675.935 136.664 675.242 136.835 674.602 137.176C673.962 137.517 673.429 137.997 673.002 138.616C672.575 139.235 672.298 139.971 672.17 140.824L670.762 151H667.178ZM693.575 151.192C691.719 151.192 690.343 150.669 689.447 149.624C688.573 148.557 688.263 147.096 688.519 145.24L689.671 136.952H686.599L687.079 133.688H687.463C688.274 133.688 688.957 133.443 689.511 132.952C690.066 132.44 690.397 131.779 690.503 130.968L690.695 129.72H694.343L693.767 133.688H697.671L697.191 136.952H693.319L692.135 145.272C692.05 145.869 692.061 146.371 692.167 146.776C692.295 147.181 692.541 147.491 692.903 147.704C693.266 147.896 693.778 147.992 694.439 147.992C694.653 147.992 694.855 147.981 695.047 147.96C695.261 147.939 695.485 147.917 695.719 147.896L695.431 151.032C695.154 151.096 694.834 151.139 694.471 151.16C694.13 151.181 693.831 151.192 693.575 151.192ZM707.385 151.384C705.721 151.384 704.26 151.021 703.001 150.296C701.764 149.549 700.793 148.536 700.089 147.256C699.406 145.976 699.065 144.536 699.065 142.936C699.065 141.613 699.289 140.376 699.737 139.224C700.206 138.051 700.846 137.027 701.657 136.152C702.489 135.256 703.449 134.563 704.537 134.072C705.646 133.56 706.852 133.304 708.153 133.304C709.838 133.304 711.257 133.656 712.409 134.36C713.582 135.064 714.468 136.013 715.065 137.208C715.662 138.381 715.961 139.672 715.961 141.08C715.961 141.443 715.929 141.827 715.865 142.232C715.801 142.637 715.737 143.021 715.673 143.384H701.849L702.073 140.504H713.817L711.993 141.752C712.292 140.749 712.302 139.843 712.025 139.032C711.748 138.2 711.268 137.549 710.585 137.08C709.902 136.589 709.081 136.344 708.121 136.344C706.905 136.344 705.902 136.653 705.113 137.272C704.324 137.869 703.737 138.691 703.353 139.736C702.969 140.781 702.777 141.976 702.777 143.32C702.777 144.323 702.98 145.197 703.385 145.944C703.79 146.669 704.345 147.224 705.049 147.608C705.753 147.992 706.553 148.184 707.449 148.184C708.516 148.184 709.433 147.939 710.201 147.448C710.99 146.957 711.63 146.339 712.121 145.592L715.001 147.16C714.596 147.971 714.009 148.696 713.241 149.336C712.494 149.976 711.62 150.477 710.617 150.84C709.614 151.203 708.537 151.384 707.385 151.384ZM718.241 151L721.633 126.776H725.249L721.857 151H718.241ZM726.116 151L728.516 133.688H732.164L729.732 151H726.116ZM728.868 131.32L729.444 127.16H733.06L732.484 131.32H728.868ZM741.607 158.04C740.327 158.04 739.164 157.827 738.119 157.4C737.073 156.973 736.209 156.397 735.527 155.672C734.844 154.947 734.375 154.104 734.118 153.144L737.543 152.024C737.713 152.792 738.172 153.421 738.919 153.912C739.665 154.424 740.668 154.68 741.927 154.68C742.801 154.68 743.612 154.509 744.359 154.168C745.105 153.827 745.735 153.336 746.247 152.696C746.759 152.077 747.079 151.32 747.207 150.424L747.783 146.296L748.743 147.096C748.081 148.205 747.207 149.037 746.119 149.592C745.031 150.147 743.825 150.424 742.503 150.424C740.988 150.424 739.633 150.093 738.439 149.432C737.244 148.749 736.295 147.811 735.591 146.616C734.908 145.4 734.567 144.003 734.567 142.424C734.567 141.144 734.791 139.949 735.239 138.84C735.708 137.731 736.348 136.76 737.159 135.928C737.969 135.096 738.919 134.456 740.007 134.008C741.095 133.539 742.279 133.304 743.559 133.304C744.945 133.304 746.183 133.603 747.271 134.2C748.38 134.776 749.244 135.587 749.863 136.632L749.191 137.496L749.703 133.688H753.159L750.823 150.552C750.631 152.024 750.108 153.315 749.255 154.424C748.401 155.555 747.313 156.44 745.991 157.08C744.668 157.72 743.207 158.04 741.607 158.04ZM742.951 147.064C743.996 147.064 744.935 146.808 745.767 146.296C746.599 145.763 747.249 145.069 747.719 144.216C748.209 143.363 748.455 142.435 748.455 141.432C748.455 140.515 748.263 139.693 747.879 138.968C747.495 138.243 746.951 137.677 746.247 137.272C745.564 136.867 744.764 136.664 743.847 136.664C742.844 136.664 741.916 136.92 741.062 137.432C740.231 137.923 739.569 138.595 739.079 139.448C738.588 140.301 738.343 141.261 738.343 142.328C738.343 143.245 738.535 144.067 738.919 144.792C739.303 145.496 739.847 146.051 740.551 146.456C741.255 146.861 742.055 147.064 742.951 147.064ZM763.854 151.384C762.19 151.384 760.728 151.021 759.47 150.296C758.232 149.549 757.262 148.536 756.558 147.256C755.875 145.976 755.534 144.536 755.534 142.936C755.534 141.613 755.758 140.376 756.206 139.224C756.675 138.051 757.315 137.027 758.126 136.152C758.958 135.256 759.918 134.563 761.006 134.072C762.115 133.56 763.32 133.304 764.622 133.304C766.307 133.304 767.726 133.656 768.878 134.36C770.051 135.064 770.936 136.013 771.534 137.208C772.131 138.381 772.43 139.672 772.43 141.08C772.43 141.443 772.398 141.827 772.334 142.232C772.27 142.637 772.206 143.021 772.142 143.384H758.318L758.542 140.504H770.286L768.462 141.752C768.76 140.749 768.771 139.843 768.494 139.032C768.216 138.2 767.736 137.549 767.054 137.08C766.371 136.589 765.55 136.344 764.59 136.344C763.374 136.344 762.371 136.653 761.582 137.272C760.792 137.869 760.206 138.691 759.822 139.736C759.438 140.781 759.246 141.976 759.246 143.32C759.246 144.323 759.448 145.197 759.854 145.944C760.259 146.669 760.814 147.224 761.518 147.608C762.222 147.992 763.022 148.184 763.918 148.184C764.984 148.184 765.902 147.939 766.67 147.448C767.459 146.957 768.099 146.339 768.59 145.592L771.47 147.16C771.064 147.971 770.478 148.696 769.71 149.336C768.963 149.976 768.088 150.477 767.086 150.84C766.083 151.203 765.006 151.384 763.854 151.384ZM774.709 151L777.109 133.688H780.565L780.117 137.08L779.733 136.536C780.288 135.448 781.056 134.637 782.037 134.104C783.04 133.571 784.149 133.304 785.365 133.304C786.645 133.304 787.744 133.603 788.661 134.2C789.6 134.797 790.283 135.619 790.709 136.664C791.157 137.709 791.285 138.893 791.093 140.216L789.589 151H785.973L787.413 140.6C787.584 139.405 787.371 138.456 786.773 137.752C786.176 137.027 785.323 136.664 784.213 136.664C783.467 136.664 782.773 136.835 782.133 137.176C781.493 137.517 780.96 137.997 780.533 138.616C780.107 139.235 779.829 139.971 779.701 140.824L778.293 151H774.709ZM801.107 151.192C799.251 151.192 797.875 150.669 796.979 149.624C796.104 148.557 795.795 147.096 796.051 145.24L797.203 136.952H794.131L794.611 133.688H794.995C795.805 133.688 796.488 133.443 797.043 132.952C797.597 132.44 797.928 131.779 798.035 130.968L798.227 129.72H801.875L801.299 133.688H805.203L804.723 136.952H800.851L799.667 145.272C799.581 145.869 799.592 146.371 799.699 146.776C799.827 147.181 800.072 147.491 800.435 147.704C800.797 147.896 801.309 147.992 801.97 147.992C802.184 147.992 802.387 147.981 802.579 147.96C802.792 147.939 803.016 147.917 803.251 147.896L802.963 151.032C802.685 151.096 802.365 151.139 802.003 151.16C801.661 151.181 801.363 151.192 801.107 151.192ZM814.916 151.384C813.252 151.384 811.791 151.021 810.532 150.296C809.295 149.549 808.324 148.536 807.62 147.256C806.938 145.976 806.596 144.536 806.596 142.936C806.596 141.613 806.82 140.376 807.268 139.224C807.738 138.051 808.378 137.027 809.188 136.152C810.02 135.256 810.98 134.563 812.068 134.072C813.178 133.56 814.383 133.304 815.684 133.304C817.37 133.304 818.788 133.656 819.94 134.36C821.114 135.064 821.999 136.013 822.596 137.208C823.194 138.381 823.492 139.672 823.492 141.08C823.492 141.443 823.46 141.827 823.396 142.232C823.332 142.637 823.268 143.021 823.204 143.384H809.38L809.604 140.504H821.348L819.524 141.752C819.823 140.749 819.834 139.843 819.556 139.032C819.279 138.2 818.799 137.549 818.116 137.08C817.434 136.589 816.612 136.344 815.652 136.344C814.436 136.344 813.434 136.653 812.644 137.272C811.855 137.869 811.268 138.691 810.884 139.736C810.5 140.781 810.308 141.976 810.308 143.32C810.308 144.323 810.511 145.197 810.916 145.944C811.322 146.669 811.876 147.224 812.58 147.608C813.284 147.992 814.084 148.184 814.98 148.184C816.047 148.184 816.964 147.939 817.732 147.448C818.522 146.957 819.162 146.339 819.652 145.592L822.532 147.16C822.127 147.971 821.54 148.696 820.772 149.336C820.026 149.976 819.151 150.477 818.148 150.84C817.146 151.203 816.068 151.384 814.916 151.384Z" fill="url(#paint3_linear_7_99)"/>
<defs>
<linearGradient id="paint0_linear_7_99" x1="96" y1="0" x2="96" y2="192" gradientUnits="userSpaceOnUse">
<stop offset="0.57"/>
<stop offset="1" stop-color="#666666"/>
</linearGradient>
<linearGradient id="paint1_linear_7_99" x1="858.455" y1="13" x2="858.455" y2="35.91" gradientUnits="userSpaceOnUse">
<stop offset="0.57"/>
<stop offset="1" stop-color="#666666"/>
</linearGradient>
<linearGradient id="paint2_linear_7_99" x1="536" y1="13" x2="536" y2="96" gradientUnits="userSpaceOnUse">
<stop offset="0.57"/>
<stop offset="1" stop-color="#666666"/>
</linearGradient>
<linearGradient id="paint3_linear_7_99" x1="532.5" y1="118" x2="532.5" y2="158" gradientUnits="userSpaceOnUse">
<stop offset="0.57"/>
<stop offset="1" stop-color="#666666"/>
</linearGradient>
</defs>
</svg>
